<svg width="48" height="48" viewBox="0 0 48 48" fill="none" xmlns="http://www.w3.org/2000/svg">
<g clip-path="url(#clip0_22_42)">
<path d="M23.6602 29.6611C26.831 29.6611 29.4015 27.1266 29.4015 24C29.4015 20.8735 26.831 18.3389 23.6602 18.3389C20.4894 18.3389 17.9189 20.8735 17.9189 24C17.9189 27.1266 20.4894 29.6611 23.6602 29.6611Z" fill="#5E17EB"/>
<path d="M25.6064 0.0748944C13.3859 -0.862066 2.88276 7.10785 0.0632362 18.0951C-0.0925384 18.7037 0.369918 19.296 1.00665 19.296H11.0015C11.3803 19.296 11.7278 19.0819 11.8836 18.7421C13.9233 14.3079 18.4622 11.2291 23.7283 11.256C30.8764 11.2925 36.6761 17.1197 36.5836 24.168C36.4921 31.129 30.7411 36.745 23.6602 36.745C18.3794 36.745 13.8396 33.6221 11.834 29.1475C11.6792 28.8019 11.3296 28.5802 10.946 28.5802H0.975491C0.346551 28.5802 -0.12272 29.161 0.0281869 29.7639C2.64617 40.2346 12.2322 48 23.6592 48C37.7529 48 49.0495 36.1882 47.9211 22.056C46.9864 10.344 37.4852 0.984974 25.6064 0.0748944Z" fill="#5E17EB"/>
</g>
<defs>
<clipPath id="clip0_22_42">
<rect width="48" height="48" fill="white"/>
</clipPath>
</defs>
</svg>
