<svg width="64" height="64" viewBox="0 0 64 64" fill="none" xmlns="http://www.w3.org/2000/svg">
<rect width="64" height="64" fill="#5E17EB"/>
<g clip-path="url(#clip0_16_2)">
<path d="M31.6602 37.6611C34.831 37.6611 37.4015 35.1266 37.4015 32C37.4015 28.8735 34.831 26.3389 31.6602 26.3389C28.4894 26.3389 25.9189 28.8735 25.9189 32C25.9189 35.1266 28.4894 37.6611 31.6602 37.6611Z" fill="white"/>
<path d="M33.6064 8.07489C21.3859 7.13793 10.8828 15.1079 8.06324 26.0951C7.90746 26.7037 8.36992 27.296 9.00665 27.296H19.0015C19.3803 27.296 19.7278 27.0819 19.8836 26.7421C21.9233 22.3079 26.4622 19.2291 31.7283 19.256C38.8764 19.2925 44.6761 25.1197 44.5836 32.168C44.4921 39.129 38.7411 44.745 31.6602 44.745C26.3794 44.745 21.8396 41.6221 19.834 37.1475C19.6792 36.8019 19.3296 36.5802 18.946 36.5802H8.97549C8.34655 36.5802 7.87728 37.161 8.02819 37.7639C10.6462 48.2346 20.2322 56 31.6592 56C45.7529 56 57.0495 44.1882 55.9211 30.056C54.9864 18.344 45.4852 8.98497 33.6064 8.07489Z" fill="white"/>
</g>
<defs>
<clipPath id="clip0_16_2">
<rect width="48" height="48" fill="white" transform="translate(8 8)"/>
</clipPath>
</defs>
</svg>
